<?xml version="1.0" encoding="utf-8"?>
<!DOCTYPE svg PUBLIC "-//W3C//DTD SVG 20010904//EN" "http://www.w3.org/TR/2001/REC-SVG-20010904/DTD/svg10.dtd">
<svg version="1.0" xmlns="http://www.w3.org/2000/svg" width="1026pt" height="1026pt" viewBox="0 0 1026 1026" style="" preserveAspectRatio="xMidYMid meet">
<g fill="#42681AFE" stroke="#42681AFE">
<path d="M 492.000 284.687 C 468.741 287.125 445.572 292.845 427.000 300.735 C 367.951 325.822 326.000 367.507 301.414 425.526 C 290.623 450.989 285.261 475.722 284.507 503.500 C 284.161 516.277 284.288 518.594 285.141 515.000 C 288.815 499.510 292.575 486.484 295.627 478.676 C 310.219 441.332 335.493 409.528 367.876 387.761 C 378.895 380.354 392.161 373.065 400.462 369.856 C 403.233 368.785 406.850 367.289 408.500 366.532 C 410.150 365.774 412.738 364.846 414.250 364.469 C 415.763 364.092 417.000 363.355 417.000 362.833 C 417.000 362.310 417.368 362.109 417.818 362.387 C 418.268 362.665 422.655 361.832 427.568 360.536 C 445.692 355.753 455.209 354.626 477.500 354.622 C 493.473 354.619 500.774 355.046 508.000 356.406 C 518.657 358.412 532.220 361.602 536.000 362.991 C 555.671 370.224 571.393 377.435 579.442 382.914 C 581.674 384.434 585.516 386.987 587.980 388.589 C 593.037 391.875 593.745 392.428 603.603 400.805 C 623.167 417.429 640.082 439.050 651.649 462.217 C 654.592 468.111 657.002 473.286 657.003 473.717 C 657.005 474.148 658.362 477.824 660.017 481.888 C 663.100 489.452 665.700 498.744 668.442 511.989 C 673.938 538.543 672.786 570.928 665.349 598.951 C 646.933 668.334 590.849 722.561 521.000 738.519 C 507.008 741.716 506.927 741.815 518.199 741.910 C 564.256 742.298 618.791 722.529 655.841 692.016 C 692.932 661.468 716.038 628.091 731.312 583.000 C 737.704 564.130 741.053 543.524 741.714 519.000 C 742.783 479.327 735.516 446.367 717.790 410.500 C 715.072 405.000 711.548 398.475 709.960 396.000 C 708.372 393.525 706.318 390.164 705.397 388.530 C 701.172 381.041 684.377 360.375 674.924 351.034 C 662.038 338.299 648.590 327.555 635.000 319.138 C 632.525 317.605 629.150 315.508 627.500 314.477 C 622.958 311.641 607.631 304.281 597.270 299.961 C 580.617 293.019 557.587 287.354 536.500 285.015 C 528.068 284.079 499.785 283.871 492.000 284.687 "/></g>
<g fill="#42681AFE" stroke="#42681AFE">
<path d="M 523.550 802.730 C 523.090 803.928 522.683 803.982 521.502 803.002 C 520.636 802.283 518.681 802.010 516.764 802.342 C 507.966 803.861 507.000 804.234 507.000 806.113 C 507.000 807.466 506.282 808.000 504.465 808.000 C 503.070 808.000 500.867 808.696 499.569 809.547 C 497.305 811.030 497.154 810.968 495.855 808.035 C 494.297 804.514 493.338 804.100 486.500 803.993 C 478.886 803.874 477.696 804.008 476.340 805.133 C 475.651 805.704 474.640 805.896 474.094 805.558 C 472.630 804.653 470.661 808.917 470.427 813.500 C 470.315 815.700 469.959 818.592 469.635 819.926 C 469.312 821.260 469.431 822.835 469.900 823.426 C 470.789 824.545 470.627 839.131 469.502 859.273 C 469.096 866.535 469.258 872.976 469.925 876.084 C 470.704 879.718 470.700 881.693 469.909 883.171 C 469.071 884.736 469.197 886.227 470.442 889.487 C 473.020 896.238 474.772 897.280 483.218 897.085 C 494.461 896.826 495.164 896.670 497.082 894.000 C 499.838 890.166 500.561 877.477 498.270 873.186 C 496.577 870.016 496.577 869.829 498.271 868.875 C 499.245 868.326 499.747 867.400 499.386 866.816 C 498.863 865.970 498.777 841.344 499.266 832.500 C 499.431 829.529 500.778 829.032 508.719 829.015 C 514.702 829.003 515.839 828.745 515.365 827.508 C 515.035 826.648 515.489 825.749 516.439 825.385 C 518.704 824.516 519.549 825.634 518.020 827.476 C 516.954 828.761 517.091 829.000 518.892 829.000 C 523.258 829.000 524.653 833.664 525.556 851.289 C 526.014 860.205 526.413 869.300 526.444 871.500 C 526.475 873.700 526.906 876.131 527.403 876.902 C 528.017 877.856 527.751 878.709 526.571 879.572 C 525.112 880.639 524.950 881.753 525.554 886.585 C 526.474 893.950 529.734 897.337 534.352 895.728 C 536.426 895.004 538.225 895.041 540.469 895.853 C 544.457 897.295 549.155 896.784 552.588 894.535 C 555.061 892.914 555.191 892.460 554.566 887.650 C 553.296 877.885 553.079 872.069 553.965 871.522 C 555.261 870.721 554.013 859.895 552.311 857.175 C 550.974 855.039 551.024 854.807 552.928 854.309 C 554.781 853.824 555.000 853.009 555.000 846.583 C 555.000 842.633 554.498 838.898 553.885 838.285 C 553.064 837.464 553.634 836.094 556.039 833.101 C 559.432 828.878 561.470 828.129 569.500 828.151 C 576.719 828.171 577.599 828.678 580.560 834.531 C 583.013 839.379 583.230 840.494 582.266 843.293 C 581.608 845.203 581.336 850.748 581.593 857.000 C 581.832 862.775 581.983 868.175 581.929 869.000 C 581.876 869.825 581.854 872.497 581.882 874.938 C 581.910 877.379 581.500 879.897 580.972 880.534 C 579.717 882.045 581.678 892.945 583.589 895.080 C 584.585 896.193 586.405 896.576 589.751 896.374 C 592.363 896.217 595.400 896.139 596.500 896.199 C 603.655 896.593 607.456 896.096 608.531 894.627 C 610.180 892.372 611.480 859.765 610.029 857.054 C 609.010 855.149 608.270 842.698 609.046 840.500 C 609.749 838.510 607.829 824.451 606.588 822.500 C 605.889 821.400 605.008 819.248 604.631 817.719 C 603.568 813.401 594.746 805.423 588.417 803.055 C 582.054 800.674 572.425 800.363 569.673 802.448 C 568.668 803.210 567.993 804.750 568.173 805.871 C 568.353 806.992 568.050 807.817 567.500 807.705 C 566.950 807.592 566.607 806.713 566.738 805.750 C 567.342 801.317 556.542 806.472 552.590 812.504 C 551.690 813.877 550.484 815.000 549.910 815.000 C 549.336 815.000 547.309 816.188 545.406 817.639 C 541.307 820.766 540.124 820.127 541.833 815.712 C 543.041 812.591 542.952 812.387 538.665 808.500 C 533.394 803.721 524.476 800.317 523.550 802.730 M 536.000 818.500 C 536.000 819.338 536.891 820.000 538.019 820.000 C 539.704 820.000 539.928 820.439 539.373 822.649 C 538.979 824.221 539.092 825.061 539.652 824.715 C 540.171 824.394 541.225 824.521 541.994 824.996 C 542.810 825.501 544.193 825.432 545.317 824.830 C 546.692 824.094 547.047 824.114 546.562 824.900 C 546.188 825.505 546.390 826.000 547.011 826.000 C 548.446 826.000 547.879 830.219 546.377 830.713 C 545.760 830.916 545.003 830.118 544.695 828.940 C 543.910 825.940 542.160 827.384 542.762 830.534 C 543.074 832.169 543.747 832.927 544.596 832.602 C 546.287 831.953 547.363 833.610 546.578 835.656 C 546.038 837.065 545.743 837.062 543.542 835.619 C 542.015 834.619 540.872 834.398 540.483 835.027 C 540.141 835.580 539.443 835.774 538.931 835.457 C 537.606 834.638 537.778 830.622 539.200 829.200 C 540.133 828.267 540.133 828.000 539.200 828.000 C 538.540 828.000 538.000 827.298 538.000 826.441 C 538.000 825.580 537.517 825.181 536.921 825.549 C 536.328 825.916 533.843 825.656 531.400 824.972 C 527.544 823.892 526.719 823.944 525.150 825.364 C 522.476 827.785 521.000 827.359 521.000 824.167 C 521.000 820.361 521.783 819.812 524.591 821.651 C 526.831 823.120 527.013 823.066 528.137 820.599 C 529.390 817.849 531.519 817.159 532.300 819.250 C 532.617 820.098 533.000 819.938 533.491 818.750 C 534.376 816.608 536.000 816.446 536.000 818.500 M 600.096 855.716 C 601.693 856.659 603.000 857.738 603.000 858.112 C 603.000 858.486 601.454 860.151 599.563 861.810 C 596.552 864.455 596.232 865.178 596.977 867.664 C 597.445 869.224 597.867 870.107 597.914 869.628 C 598.051 868.236 601.000 871.098 601.000 872.622 C 601.000 873.425 599.957 874.000 598.500 874.000 C 597.125 874.000 596.000 873.550 596.000 873.000 C 596.000 872.450 595.190 872.000 594.200 872.000 C 592.384 872.000 590.000 870.222 590.000 868.867 C 590.000 868.464 590.900 867.849 591.999 867.500 C 593.623 866.985 593.804 866.503 592.964 864.933 C 592.095 863.308 592.264 863.000 594.024 863.000 C 595.224 863.000 595.843 862.554 595.473 861.956 C 595.118 861.382 595.322 860.317 595.926 859.589 C 596.743 858.605 596.636 857.943 595.512 857.010 C 591.786 853.917 595.348 852.911 600.096 855.716 M 537.588 836.365 C 538.407 838.131 538.368 838.936 537.432 839.607 C 536.747 840.098 535.884 841.530 535.514 842.789 C 534.907 844.851 535.096 845.014 537.420 844.431 C 539.641 843.873 540.000 844.108 540.000 846.114 L 540.000 848.445 541.642 846.101 C 543.064 844.071 543.403 843.969 544.172 845.343 C 544.736 846.351 544.597 847.673 543.790 848.965 C 542.400 851.190 541.000 851.648 541.000 849.878 C 541.000 849.079 540.587 849.098 539.567 849.944 C 537.687 851.505 534.076 848.080 533.825 844.500 C 533.129 834.563 533.210 833.994 535.309 834.008 C 535.964 834.012 536.990 835.073 537.588 836.365 M 487.381 822.054 C 488.505 824.729 488.825 824.915 489.955 823.554 C 491.108 822.165 494.000 821.353 494.000 822.418 C 494.000 822.648 494.252 823.493 494.560 824.295 C 495.563 826.910 490.266 827.355 486.261 824.991 C 484.308 823.839 482.115 823.125 481.388 823.405 C 479.747 824.034 478.634 822.396 479.380 820.452 C 479.700 819.618 481.247 819.000 483.017 819.000 C 485.504 819.000 486.344 819.588 487.381 822.054 M 575.487 814.756 C 576.030 815.990 577.043 817.000 577.737 817.000 C 579.446 817.000 579.325 817.984 577.345 820.171 C 575.142 822.606 574.000 822.479 574.000 819.800 C 574.000 818.089 573.733 817.867 572.800 818.800 C 570.951 820.649 570.000 820.235 570.000 817.582 C 570.000 811.883 573.443 810.110 575.487 814.756 M 503.026 812.531 C 504.075 813.795 503.981 814.293 502.491 815.383 C 500.807 816.614 500.865 816.749 503.342 817.371 C 504.804 817.738 506.000 818.480 506.000 819.019 C 506.000 820.359 503.280 820.263 502.434 818.893 C 501.947 818.106 501.530 818.143 500.987 819.021 C 499.722 821.067 498.000 819.099 498.000 815.608 C 498.000 810.831 500.397 809.363 503.026 812.531 M 480.815 862.969 C 483.650 865.804 483.808 865.844 484.326 863.863 C 485.050 861.091 487.500 862.033 487.500 865.083 C 487.500 867.244 487.129 867.464 484.000 867.158 C 480.315 866.798 477.000 864.139 477.000 861.542 C 477.000 859.414 477.415 859.569 480.815 862.969 M 490.692 853.077 C 490.234 857.665 489.429 858.829 487.825 857.225 C 486.551 855.951 485.691 850.247 486.468 848.223 C 486.852 847.221 487.454 847.172 489.029 848.016 C 490.700 848.910 491.014 849.864 490.692 853.077 M 586.543 811.750 C 585.510 815.964 583.668 817.428 581.117 816.062 C 578.250 814.528 578.456 812.801 581.750 810.758 C 585.901 808.185 587.343 808.483 586.543 811.750 M 490.511 831.328 C 490.516 832.238 490.966 832.987 491.511 832.991 C 492.055 832.996 492.500 833.563 492.500 834.250 C 492.500 835.036 490.698 835.615 487.647 835.809 C 483.997 836.041 482.901 835.794 483.225 834.809 C 483.463 834.089 484.641 833.355 485.843 833.179 C 487.046 833.002 487.771 832.439 487.456 831.929 C 486.653 830.629 487.946 828.815 489.342 829.283 C 489.979 829.497 490.505 830.417 490.511 831.328 M 541.951 864.441 C 542.608 865.233 543.785 865.636 544.567 865.336 C 545.994 864.788 548.212 868.742 547.324 870.250 C 546.533 871.592 545.244 871.043 544.750 869.154 C 544.380 867.735 543.568 867.410 541.252 867.750 C 537.971 868.231 536.647 867.084 537.604 864.590 C 538.364 862.610 540.374 862.541 541.951 864.441 M 538.066 871.035 C 540.606 872.395 540.639 876.000 538.111 876.000 C 535.522 876.000 531.510 872.601 532.400 871.162 C 533.289 869.723 535.521 869.673 538.066 871.035 M 596.334 817.427 C 597.202 819.690 594.510 821.367 592.781 819.639 C 591.541 818.398 591.184 818.476 590.093 820.222 C 588.663 822.513 586.330 821.187 587.308 818.639 C 587.806 817.342 589.226 816.860 594.643 816.150 C 595.272 816.067 596.032 816.642 596.334 817.427 "/></g>
<g fill="#64A81AFE" stroke="#64A81AFE">
<path d="M 336.457 504.251 C 336.193 504.940 336.095 523.727 336.238 546.001 L 336.500 586.500 381.000 586.778 C 405.475 586.930 426.513 586.809 427.750 586.509 L 430.000 585.962 430.000 545.088 C 430.000 508.739 429.825 504.147 428.418 503.607 C 427.548 503.273 406.609 503.000 381.887 503.000 C 346.824 503.000 336.832 503.275 336.457 504.251 "/></g>
<g fill="#64A81AFE" stroke="#64A81AFE">
<path d="M 432.112 588.365 C 431.297 589.348 431.052 602.437 431.240 635.115 L 431.500 680.500 473.000 680.500 L 514.500 680.500 514.778 636.000 C 514.930 611.525 514.809 590.488 514.509 589.250 L 513.962 587.000 473.603 587.000 C 440.725 587.000 433.035 587.253 432.112 588.365 "/></g>
<g fill="#64A81AFE" stroke="#64A81AFE">
<path d="M 432.112 408.365 C 431.297 409.348 431.052 422.437 431.240 455.115 L 431.500 500.500 472.434 500.761 C 504.517 500.966 513.541 500.750 514.169 499.761 C 515.547 497.590 515.193 409.593 513.800 408.200 C 511.932 406.332 433.668 406.490 432.112 408.365 "/></g>
<g fill="#42681AFE" stroke="#42681AFE">
<path d="M 318.500 775.671 C 315.750 776.523 313.015 777.351 312.422 777.512 C 310.940 777.915 303.316 791.031 303.128 793.500 C 303.044 794.600 302.938 796.993 302.891 798.819 C 302.843 800.678 302.189 802.374 301.403 802.676 C 300.631 802.972 300.000 803.753 300.000 804.413 C 300.000 805.072 298.887 807.120 297.527 808.963 C 296.167 810.806 293.879 815.506 292.442 819.407 C 291.005 823.308 288.893 828.750 287.748 831.500 C 286.603 834.250 285.746 837.709 285.844 839.187 C 285.953 840.829 285.083 842.886 283.606 844.480 C 281.324 846.942 280.825 849.159 282.235 850.569 C 283.182 851.515 281.958 854.000 280.546 854.000 C 278.919 854.000 273.000 865.335 273.000 868.450 C 273.000 869.781 272.491 872.137 271.869 873.685 C 270.792 876.365 270.561 877.352 269.716 882.885 C 269.515 884.197 268.597 885.821 267.676 886.495 C 266.754 887.169 266.000 888.458 266.000 889.360 C 266.000 890.262 265.602 891.000 265.117 891.000 C 263.600 891.000 263.178 895.854 264.645 896.417 C 265.387 896.702 271.875 896.993 279.063 897.063 C 290.164 897.172 292.419 896.931 294.042 895.462 C 295.093 894.511 295.720 893.355 295.434 892.894 C 294.754 891.793 299.509 881.432 301.193 880.344 C 302.608 879.430 305.283 879.209 320.334 878.757 C 325.742 878.595 330.381 878.807 330.641 879.228 C 330.901 879.648 332.479 879.287 334.148 878.424 C 336.941 876.979 337.334 876.992 339.095 878.586 C 340.685 880.024 341.443 880.119 343.579 879.146 C 346.560 877.788 348.629 878.537 347.074 880.411 C 346.511 881.090 346.220 882.962 346.427 884.572 C 347.317 891.491 348.283 894.943 349.176 894.391 C 349.702 894.066 350.702 894.578 351.397 895.529 C 352.443 896.958 354.826 897.340 365.149 897.731 L 377.636 898.204 379.371 895.556 C 381.034 893.018 381.022 892.772 379.072 889.616 C 377.952 887.805 376.883 885.314 376.694 884.080 C 376.506 882.845 375.725 881.448 374.959 880.975 C 374.065 880.422 373.667 878.725 373.847 876.233 C 374.033 873.656 373.602 871.914 372.564 871.053 C 371.704 870.339 371.000 868.936 371.000 867.935 C 371.000 866.933 370.144 864.626 369.097 862.807 C 368.050 860.988 366.889 858.034 366.516 856.242 C 366.143 854.450 364.939 852.503 363.841 851.915 C 362.743 851.327 362.074 850.248 362.355 849.517 C 362.636 848.786 361.980 847.387 360.897 846.407 C 359.815 845.428 359.177 843.981 359.479 843.194 C 360.200 841.315 357.953 829.925 356.482 828.000 C 355.851 827.175 354.520 824.700 353.524 822.500 C 352.527 820.300 350.417 816.679 348.833 814.454 C 347.026 811.915 345.902 809.014 345.814 806.662 C 345.736 804.602 345.296 802.683 344.836 802.399 C 344.376 802.115 344.000 800.965 344.000 799.845 C 344.000 798.725 343.381 796.614 342.624 795.154 C 339.206 788.560 337.000 783.120 337.000 781.286 C 337.000 780.190 335.896 778.101 334.548 776.646 C 331.643 773.511 326.488 773.198 318.500 775.671 M 326.542 822.800 C 327.178 825.622 328.241 828.585 328.904 829.384 C 329.567 830.183 330.314 832.786 330.564 835.169 C 331.631 845.358 333.198 849.500 335.986 849.500 C 336.804 849.500 337.624 850.288 337.810 851.250 C 338.015 852.318 337.533 853.000 336.573 853.000 C 335.708 853.000 334.970 852.438 334.932 851.750 C 334.895 851.063 334.376 851.513 333.780 852.750 C 332.560 855.279 332.144 855.385 328.665 854.063 C 326.621 853.286 326.114 853.457 325.693 855.067 C 325.345 856.398 324.658 856.806 323.506 856.364 C 322.269 855.889 321.880 856.217 322.029 857.610 C 322.402 861.107 322.007 863.122 321.061 862.538 C 320.545 862.219 319.688 862.734 319.157 863.683 C 318.132 865.516 318.446 865.598 310.786 861.500 C 307.107 859.532 307.203 853.000 310.910 853.000 C 313.579 853.000 314.673 855.044 312.619 856.193 C 310.066 857.622 311.645 858.910 315.263 858.349 C 317.043 858.073 319.043 857.807 319.707 857.757 C 321.490 857.623 322.270 854.788 320.784 853.845 C 320.078 853.397 318.082 853.024 316.348 853.015 C 313.905 853.003 312.744 852.286 311.186 849.825 L 309.176 846.650 311.445 844.865 C 312.783 843.812 314.388 840.676 315.357 837.224 C 317.463 829.718 317.439 829.367 314.750 828.547 C 312.608 827.893 312.656 827.792 315.750 826.427 C 318.136 825.375 319.000 824.346 319.000 822.556 C 319.000 821.215 318.550 819.840 318.000 819.500 C 316.333 818.470 316.872 816.985 319.250 816.063 C 322.770 814.698 325.229 816.970 326.542 822.800 M 323.000 795.513 C 323.000 796.320 323.758 796.615 325.000 796.290 C 326.100 796.002 327.000 795.369 327.000 794.883 C 327.000 793.055 330.016 794.095 331.563 796.456 C 333.390 799.245 332.823 800.981 330.246 800.487 C 329.286 800.304 328.864 800.119 329.309 800.077 C 329.754 800.034 329.773 799.442 329.352 798.760 C 328.834 797.922 328.390 798.327 327.981 800.010 C 327.605 801.559 328.046 803.614 329.147 805.447 C 330.456 807.626 330.633 808.737 329.826 809.709 C 329.043 810.653 328.373 810.725 327.456 809.964 C 326.567 809.225 325.981 809.222 325.530 809.951 C 324.526 811.577 316.436 811.230 315.000 809.500 C 313.960 808.247 314.104 808.000 315.878 808.000 C 318.189 808.000 318.256 807.771 318.012 800.695 C 317.921 798.053 318.363 795.267 318.996 794.505 C 320.319 792.911 323.000 793.586 323.000 795.513 M 302.486 859.500 C 303.579 859.500 304.617 860.252 304.795 861.172 C 305.028 862.385 304.594 862.707 303.209 862.344 C 302.160 862.070 299.857 862.725 298.090 863.799 L 294.878 865.753 297.683 866.457 C 301.324 867.370 303.160 868.936 302.265 870.363 C 301.874 870.988 301.541 872.136 301.526 872.914 C 301.477 875.548 299.216 875.113 297.035 872.049 C 295.841 870.372 294.219 869.000 293.432 869.000 C 291.517 869.000 291.620 867.077 293.655 864.829 C 295.209 863.112 295.180 863.000 293.186 863.000 C 291.778 863.000 291.244 863.471 291.600 864.399 C 291.895 865.168 291.656 866.095 291.068 866.458 C 290.418 866.860 290.000 866.128 290.000 864.590 C 290.000 862.889 289.562 862.231 288.660 862.577 C 287.019 863.207 284.464 860.449 285.879 859.575 C 286.416 859.243 289.176 858.789 292.014 858.566 C 294.851 858.344 297.459 857.875 297.809 857.525 C 298.159 857.175 298.907 857.476 299.473 858.194 C 300.038 858.912 301.394 859.500 302.486 859.500 M 342.601 854.401 C 342.896 855.172 344.007 856.030 345.069 856.308 C 347.143 856.850 347.557 859.090 346.091 861.830 C 344.990 863.888 346.705 866.603 349.442 867.133 C 352.441 867.714 352.554 870.000 349.583 870.000 C 348.163 870.000 347.000 869.502 347.000 868.893 C 347.000 868.284 346.339 868.040 345.532 868.349 C 343.736 869.039 342.597 867.456 343.662 865.750 C 345.616 862.619 345.032 861.000 341.950 861.000 C 339.701 861.000 338.989 860.581 339.206 859.387 C 339.475 857.914 339.383 857.912 338.145 859.366 C 337.117 860.574 336.326 860.710 334.867 859.929 C 332.753 858.797 333.375 856.546 335.569 857.388 C 336.321 857.677 337.206 857.475 337.537 856.940 C 337.868 856.405 338.557 856.226 339.069 856.543 C 339.581 856.859 340.000 856.191 340.000 855.059 C 340.000 852.726 341.785 852.275 342.601 854.401 M 312.846 798.573 C 314.581 799.439 316.000 800.515 316.000 800.966 C 316.000 801.981 313.083 803.169 312.093 802.558 C 311.694 802.311 310.579 803.442 309.617 805.072 C 307.736 808.256 306.000 808.148 306.000 804.847 C 306.000 803.647 306.828 802.596 308.021 802.284 C 309.609 801.869 309.797 801.460 308.899 800.378 C 308.270 799.620 307.135 799.000 306.378 799.000 C 305.620 799.000 305.000 798.550 305.000 798.000 C 305.000 796.488 309.295 796.801 312.846 798.573 M 303.064 850.960 C 301.865 851.702 301.847 852.111 302.957 853.448 C 305.041 855.959 303.394 856.473 298.318 854.897 C 292.513 853.094 291.736 851.328 296.367 850.459 C 298.289 850.098 300.134 849.093 300.467 848.224 C 301.011 846.808 301.251 846.822 302.787 848.359 C 304.245 849.817 304.286 850.204 303.064 850.960 M 285.345 869.750 C 285.600 870.163 285.873 870.275 285.951 870.000 C 286.185 869.173 291.000 870.078 291.000 870.949 C 291.000 871.392 290.369 872.279 289.597 872.919 C 288.520 873.813 288.058 873.783 287.609 872.792 C 287.287 872.081 287.287 873.000 287.609 874.832 C 288.141 877.857 287.987 878.134 285.943 877.832 C 284.380 877.602 283.304 876.379 282.427 873.835 C 281.732 871.819 281.427 869.907 281.748 869.585 C 282.576 868.757 284.795 868.859 285.345 869.750 M 351.123 853.074 C 351.496 854.408 351.890 854.825 352.000 854.000 C 352.109 853.175 352.375 854.455 352.590 856.845 C 352.841 859.636 352.448 861.950 351.490 863.317 C 350.056 865.365 350.000 865.306 350.000 861.723 C 350.000 859.333 349.284 857.284 348.000 856.000 C 345.730 853.730 345.403 851.405 347.250 850.667 C 349.317 849.840 350.409 850.518 351.123 853.074 M 335.513 867.196 C 335.520 868.110 335.857 869.191 336.263 869.596 C 337.876 871.210 336.893 873.000 334.393 873.000 C 332.406 873.000 331.933 872.617 332.404 871.389 C 332.847 870.236 332.593 869.942 331.511 870.357 C 329.618 871.084 329.359 866.431 331.250 865.651 C 333.453 864.741 335.500 865.483 335.513 867.196 M 340.624 824.462 C 340.932 825.266 342.090 826.211 343.196 826.562 C 344.978 827.128 344.768 827.471 341.354 829.569 C 337.235 832.100 334.607 832.679 335.192 830.925 C 335.389 830.334 335.989 829.771 336.525 829.675 C 337.540 829.493 337.693 828.995 337.885 825.250 C 338.014 822.725 339.764 822.222 340.624 824.462 M 319.772 789.816 C 320.016 790.548 319.251 791.383 318.049 791.697 C 316.714 792.046 316.093 792.801 316.427 793.669 C 317.290 795.918 313.893 796.574 312.346 794.458 C 311.135 792.803 311.294 792.333 313.740 790.317 C 316.696 787.881 319.063 787.685 319.772 789.816 M 298.304 835.192 C 300.756 835.089 301.623 837.806 299.740 839.689 C 298.361 841.068 298.138 841.009 297.535 839.110 C 297.012 837.461 296.329 837.130 294.432 837.606 C 292.698 838.042 292.000 837.803 292.000 836.775 C 292.000 834.695 293.163 833.838 294.948 834.602 C 295.801 834.968 297.312 835.233 298.304 835.192 M 327.305 787.968 C 328.307 788.892 327.110 794.000 325.892 794.000 C 325.401 794.000 325.000 793.568 325.000 793.039 C 325.000 792.510 324.052 791.195 322.894 790.116 C 321.735 789.036 321.098 787.650 321.478 787.036 C 322.159 785.933 325.717 786.502 327.305 787.968 M 341.999 844.999 C 344.209 846.182 344.499 852.000 342.348 852.000 C 341.607 852.000 341.000 851.242 341.000 850.314 C 341.000 849.387 340.022 847.587 338.826 846.314 C 336.916 844.282 336.863 844.000 338.391 844.000 C 339.348 844.000 340.972 844.450 341.999 844.999 M 308.562 843.101 C 308.937 843.706 308.235 845.169 307.004 846.351 C 305.435 847.858 304.627 848.126 304.300 847.250 C 304.043 846.563 302.971 846.000 301.917 846.000 C 299.817 846.000 299.353 844.518 301.112 843.431 C 301.723 843.053 302.551 843.273 302.950 843.919 C 303.481 844.778 304.023 844.677 304.961 843.547 C 306.475 841.723 307.623 841.581 308.562 843.101 "/></g>
<g fill="#42681AFE" stroke="#42681AFE">
<path d="M 585.754 504.034 C 566.141 507.336 546.112 519.609 533.419 536.106 C 523.967 548.388 516.931 566.766 516.644 579.917 L 516.500 586.500 563.250 586.760 L 610.000 587.020 610.000 545.010 L 610.000 503.000 600.250 503.118 C 594.888 503.182 588.364 503.595 585.754 504.034 "/></g>
<g fill="#42681AFE" stroke="#42681AFE">
<path d="M 667.123 798.903 C 666.365 799.383 664.012 799.543 661.894 799.259 C 659.289 798.910 657.237 799.270 655.556 800.371 C 654.189 801.267 652.423 802.000 651.631 802.000 C 649.145 802.000 638.641 808.456 633.724 813.007 C 629.365 817.041 625.000 823.605 625.000 826.126 C 625.000 826.712 624.069 828.498 622.932 830.096 C 621.794 831.693 621.175 833.000 621.554 833.000 C 621.934 833.000 621.802 833.563 621.260 834.250 C 620.163 835.642 618.707 844.874 618.858 849.482 C 618.912 851.122 619.812 854.722 620.859 857.482 C 621.905 860.242 623.577 865.070 624.574 868.210 C 626.053 872.867 627.759 875.301 633.829 881.410 C 638.284 885.894 642.416 889.152 644.124 889.527 C 645.693 889.872 647.234 890.569 647.548 891.077 C 647.861 891.585 649.415 892.000 651.000 892.000 C 652.585 892.000 654.161 892.452 654.502 893.004 C 654.843 893.556 656.127 893.755 657.355 893.447 C 658.772 893.091 660.541 893.638 662.201 894.943 C 665.092 897.218 667.522 897.583 668.562 895.899 C 668.957 895.261 670.494 895.049 672.223 895.395 C 674.324 895.815 676.031 895.402 678.006 893.995 C 679.548 892.898 681.578 892.000 682.518 892.000 C 685.177 892.000 691.982 887.811 692.158 886.066 C 692.246 885.205 692.251 883.713 692.170 882.750 C 692.090 881.788 692.671 881.000 693.462 881.000 C 694.253 881.000 695.359 881.788 695.920 882.750 C 696.481 883.713 697.009 884.163 697.095 883.750 C 697.518 881.707 697.761 881.063 697.875 881.687 C 697.944 882.065 699.393 881.052 701.094 879.437 C 704.872 875.852 710.964 864.416 708.617 865.317 C 707.763 865.645 706.835 865.541 706.554 865.088 C 705.935 864.086 698.458 862.662 695.000 862.887 C 689.293 863.258 683.201 865.514 678.478 869.007 C 674.458 871.979 672.811 872.626 670.226 872.246 C 665.684 871.580 661.850 874.236 662.219 877.793 C 662.441 879.927 662.077 880.500 660.500 880.500 C 659.187 880.500 658.390 879.727 658.180 878.250 C 658.005 877.013 657.367 876.000 656.764 876.000 C 656.160 876.000 655.949 875.718 656.293 875.373 C 657.463 874.204 653.984 869.000 652.033 869.000 C 649.503 869.000 649.255 868.467 648.531 861.465 C 647.722 853.641 648.802 851.861 652.890 854.276 C 656.919 856.656 666.579 855.716 667.323 852.872 C 668.027 850.182 670.884 850.566 672.000 853.500 C 673.034 856.219 674.624 856.584 678.246 854.934 C 680.004 854.133 681.675 854.243 684.959 855.374 C 688.820 856.704 689.665 856.708 692.182 855.406 C 694.601 854.155 694.873 853.631 693.974 851.951 C 693.141 850.395 693.255 849.839 694.505 849.360 C 695.381 849.024 696.637 847.503 697.298 845.981 C 698.330 843.604 698.834 843.341 700.864 844.117 C 702.924 844.904 703.053 845.232 701.864 846.664 C 701.114 847.568 700.613 848.463 700.750 848.654 C 701.574 849.795 700.733 851.000 699.111 851.000 C 696.542 851.000 696.898 854.406 699.500 854.728 C 700.600 854.864 702.850 855.094 704.500 855.239 C 706.150 855.384 708.022 855.841 708.660 856.255 C 710.575 857.496 712.794 856.029 713.930 852.771 C 715.294 848.859 715.299 845.303 713.941 844.464 C 713.337 844.090 713.154 842.574 713.515 840.930 C 713.929 839.046 713.603 837.272 712.574 835.802 C 711.708 834.566 710.986 832.643 710.968 831.527 C 710.951 830.412 710.276 828.626 709.468 827.559 C 708.661 826.491 708.000 824.579 708.000 823.309 C 708.000 821.706 707.418 821.000 706.098 821.000 C 704.944 821.000 703.782 819.918 703.145 818.250 C 701.846 814.850 699.833 812.592 693.676 807.632 C 689.071 803.921 688.851 803.852 688.308 805.930 C 687.513 808.971 684.576 808.139 684.186 804.763 C 683.927 802.526 683.153 801.849 679.831 800.954 C 677.609 800.356 675.206 800.091 674.492 800.365 C 673.778 800.638 672.363 800.233 671.347 799.463 C 669.155 797.802 668.911 797.770 667.123 798.903 M 671.000 813.886 C 671.000 814.373 670.348 816.028 669.551 817.564 C 667.873 820.799 668.501 822.659 670.665 820.863 C 671.578 820.105 672.413 819.999 672.826 820.587 C 673.790 821.959 679.377 825.419 678.601 824.163 C 677.986 823.168 681.603 819.000 683.082 819.000 C 683.469 819.000 684.040 819.661 684.349 820.468 C 684.992 822.143 683.500 823.427 681.993 822.496 C 680.886 821.811 679.389 824.722 680.352 825.686 C 680.682 826.015 681.683 825.678 682.577 824.936 C 683.470 824.195 684.719 823.503 685.351 823.399 C 685.983 823.295 687.148 823.050 687.941 822.855 C 688.733 822.660 689.561 823.328 689.781 824.341 C 690.074 825.685 689.689 826.087 688.352 825.829 C 687.346 825.636 685.712 826.288 684.722 827.278 C 682.987 829.013 682.996 829.185 684.970 831.958 C 686.839 834.583 686.881 834.977 685.439 836.419 C 683.588 838.269 683.469 838.282 679.296 837.085 C 676.878 836.392 675.815 836.518 674.911 837.607 C 673.875 838.855 673.412 838.845 671.405 837.530 C 669.715 836.422 668.425 836.268 666.614 836.957 C 665.059 837.548 662.901 837.545 660.824 836.950 C 659.003 836.427 655.373 836.000 652.757 836.000 C 650.140 836.000 648.000 835.550 648.000 835.000 C 648.000 833.546 643.248 833.771 642.720 835.250 C 642.079 837.046 641.340 835.998 640.505 832.104 C 639.838 828.991 639.953 828.754 641.888 829.260 C 643.048 829.564 644.255 829.397 644.568 828.890 C 644.882 828.382 645.553 828.224 646.061 828.537 C 646.568 828.851 649.842 827.508 653.338 825.554 C 656.833 823.599 660.886 822.000 662.346 822.000 C 664.302 822.000 665.000 821.492 665.000 820.067 C 665.000 819.004 665.854 817.864 666.897 817.533 C 668.189 817.122 668.631 816.304 668.281 814.965 C 667.926 813.610 668.269 813.000 669.383 813.000 C 670.273 813.000 671.000 813.399 671.000 813.886 M 633.604 836.410 C 633.901 837.185 635.237 838.094 636.572 838.429 C 639.122 839.069 639.830 842.140 638.070 844.921 C 636.075 848.073 628.897 840.316 630.337 836.564 C 631.084 834.617 632.883 834.532 633.604 836.410 M 631.101 861.575 C 631.459 863.184 632.081 865.288 632.483 866.250 C 633.029 867.556 632.736 868.000 631.329 868.000 C 627.658 868.000 625.183 862.538 627.342 859.197 C 628.625 857.210 630.374 858.316 631.101 861.575 M 647.615 870.765 C 649.175 871.793 650.103 875.264 649.201 876.697 C 648.337 878.069 646.568 877.204 645.729 875.000 C 645.274 873.805 645.142 873.856 645.079 875.250 C 644.996 877.081 643.499 877.616 642.587 876.140 C 641.873 874.985 644.240 870.014 645.500 870.023 C 646.050 870.027 647.002 870.361 647.615 870.765 M 637.000 850.174 C 637.000 852.212 635.764 852.479 633.052 851.028 C 630.604 849.717 629.706 847.059 631.133 845.340 C 632.118 844.153 632.667 844.278 634.650 846.141 C 635.943 847.355 637.000 849.170 637.000 850.174 "/></g>
<g fill="#42681AFE" stroke="#42681AFE">
<path d="M 417.500 799.685 C 415.850 800.568 414.228 801.708 413.896 802.218 C 413.564 802.728 411.626 802.833 409.590 802.451 C 406.647 801.899 405.439 802.166 403.694 803.753 C 402.487 804.852 400.488 806.272 399.250 806.910 C 398.013 807.548 397.000 808.997 397.000 810.129 C 397.000 811.361 396.179 812.402 394.955 812.722 C 392.327 813.409 389.000 819.921 389.000 824.377 C 389.000 826.278 388.464 828.012 387.808 828.231 C 386.031 828.823 390.724 839.778 393.076 840.524 C 394.105 840.851 395.522 842.282 396.224 843.704 C 396.983 845.244 400.319 847.820 404.461 850.068 C 410.119 853.137 411.795 853.645 413.413 852.779 C 414.864 852.002 415.510 852.029 415.793 852.878 C 416.345 854.536 421.459 857.000 424.347 857.000 C 427.664 857.000 433.000 863.136 433.000 866.951 C 433.000 868.536 433.563 870.068 434.250 870.354 C 435.200 870.749 435.140 871.190 434.000 872.187 C 433.175 872.909 432.473 874.175 432.440 875.000 C 432.396 876.116 432.172 876.039 431.564 874.699 C 430.885 873.202 429.960 872.997 426.091 873.488 C 420.409 874.210 414.000 871.913 414.000 869.156 C 414.000 866.403 410.432 865.214 400.307 864.594 L 391.115 864.030 388.944 867.079 L 386.772 870.129 388.886 872.379 C 390.049 873.616 391.000 875.557 391.000 876.692 C 391.000 877.827 391.736 879.366 392.636 880.113 C 393.536 880.860 395.325 883.139 396.612 885.178 C 398.928 888.847 403.112 891.308 411.645 894.020 C 413.765 894.694 416.331 895.671 417.347 896.192 C 420.737 897.928 429.228 896.894 432.719 894.320 C 435.019 892.623 436.661 892.128 438.476 892.583 C 442.428 893.575 450.368 887.571 455.962 879.361 C 458.334 875.880 458.821 874.054 459.029 867.861 C 459.473 854.661 459.392 854.334 454.363 848.957 C 451.792 846.208 448.834 844.000 447.724 844.000 C 446.622 844.000 443.527 842.650 440.846 841.000 C 438.164 839.350 434.684 838.000 433.112 838.000 C 428.627 838.000 420.868 834.134 416.622 829.784 C 412.774 825.842 412.759 825.796 414.699 823.856 C 415.774 822.781 417.519 821.918 418.577 821.938 C 426.361 822.084 428.654 822.676 431.116 825.171 C 434.020 828.114 440.764 829.404 449.299 828.647 C 454.432 828.192 458.629 825.474 457.094 823.598 C 456.600 822.994 455.677 820.562 455.044 818.193 C 453.976 814.201 447.845 806.000 445.928 806.000 C 445.466 806.000 443.431 804.875 441.405 803.500 C 439.207 802.008 436.265 800.986 434.110 800.965 C 432.125 800.945 429.375 800.286 428.000 799.500 C 424.737 797.635 421.216 797.697 417.500 799.685 M 404.607 827.545 C 403.647 828.247 403.225 829.422 403.590 830.375 C 404.349 832.353 403.300 837.000 402.094 837.000 C 401.617 837.000 400.933 835.538 400.573 833.750 C 399.631 829.074 399.615 827.723 400.478 825.709 C 400.900 824.724 400.853 823.990 400.373 824.078 C 398.650 824.392 397.892 823.983 398.469 823.050 C 398.802 822.511 400.612 823.019 402.653 824.223 C 405.826 826.095 406.056 826.486 404.607 827.545 M 438.854 855.703 C 439.646 857.119 440.068 857.188 441.364 856.113 C 442.692 855.011 443.217 855.308 444.936 858.135 C 447.139 861.757 446.239 864.274 443.542 862.035 C 442.694 861.331 441.966 861.148 441.923 861.628 C 441.881 862.107 441.686 861.645 441.490 860.600 C 441.027 858.139 438.988 856.894 436.625 857.630 C 434.150 858.401 432.421 855.759 434.787 854.821 C 437.413 853.778 437.827 853.868 438.854 855.703 M 421.820 838.250 C 421.631 839.579 420.798 840.505 419.785 840.511 C 418.841 840.518 417.411 841.418 416.606 842.511 C 415.289 844.301 415.078 844.333 414.494 842.828 C 413.594 840.506 415.674 836.938 417.515 837.644 C 418.332 837.958 419.000 837.716 419.000 837.107 C 419.000 836.498 419.706 836.000 420.570 836.000 C 421.625 836.000 422.034 836.737 421.820 838.250 M 413.380 873.592 C 414.705 874.101 414.619 874.597 412.774 877.092 C 410.022 880.814 408.000 880.846 408.000 877.167 C 408.000 873.125 409.524 872.112 413.380 873.592 M 412.732 818.696 C 412.929 819.286 412.471 820.387 411.714 821.143 C 410.958 821.899 410.540 823.119 410.785 823.854 C 411.068 824.703 410.586 825.065 409.464 824.846 C 407.020 824.368 406.535 820.072 408.736 818.404 C 410.676 816.934 412.181 817.044 412.732 818.696 M 405.595 839.105 C 407.062 840.726 406.571 844.000 404.862 844.000 C 404.353 844.000 403.678 843.325 403.362 842.500 C 403.045 841.675 402.186 841.000 401.452 841.000 C 398.848 841.000 399.001 839.105 401.730 837.564 C 403.254 836.704 404.420 836.338 404.321 836.750 C 404.223 837.163 404.796 838.222 405.595 839.105 "/></g>
<g fill="#42681AFE" stroke="#42681AFE">
<path d="M 745.786 775.547 C 745.536 775.797 742.669 776.062 739.416 776.136 C 731.313 776.320 727.556 778.452 727.315 783.004 C 727.214 784.927 726.814 790.592 726.428 795.592 C 725.955 801.705 726.132 806.382 726.967 809.864 C 727.918 813.826 727.935 815.374 727.039 816.453 C 726.239 817.417 726.083 820.026 726.546 824.682 C 727.310 832.365 727.302 831.375 726.748 851.000 C 726.504 859.679 726.736 866.019 727.327 866.792 C 727.991 867.661 727.935 868.465 727.158 869.242 C 725.695 870.705 725.657 876.490 727.092 879.172 C 727.855 880.597 727.880 882.461 727.175 885.356 C 726.620 887.635 726.467 891.255 726.834 893.400 C 727.403 896.725 728.017 897.476 731.001 898.496 C 734.966 899.852 749.044 899.582 751.819 898.097 C 755.021 896.383 756.533 887.554 754.471 882.618 C 754.014 881.525 754.170 879.957 754.842 878.881 C 756.304 876.540 756.364 865.343 754.919 864.450 C 754.324 864.082 754.078 862.818 754.372 861.641 C 754.666 860.463 754.990 850.877 755.091 840.337 C 755.191 829.798 755.621 820.614 756.045 819.928 C 756.469 819.242 756.095 817.169 755.214 815.322 C 753.853 812.468 753.804 811.432 754.888 808.433 C 755.846 805.783 755.881 804.561 755.026 803.532 C 754.174 802.505 754.192 800.689 755.098 796.305 C 756.159 791.168 756.073 789.662 754.395 784.044 C 752.768 778.597 752.016 777.449 749.362 776.366 C 747.645 775.666 746.036 775.297 745.786 775.547 M 742.600 861.162 C 743.003 861.814 742.389 863.076 741.202 864.038 C 740.038 864.980 739.332 865.999 739.634 866.300 C 739.936 866.602 739.867 867.843 739.482 869.057 C 739.097 870.271 738.493 870.857 738.141 870.359 C 737.788 869.861 736.323 868.706 734.883 867.791 C 731.508 865.646 730.346 861.989 733.216 862.542 C 734.310 862.752 735.859 863.468 736.658 864.132 C 737.458 864.795 738.034 864.925 737.938 864.419 C 737.419 861.692 738.186 860.000 739.941 860.000 C 741.009 860.000 742.205 860.523 742.600 861.162 M 737.841 810.749 C 739.387 813.580 738.800 818.500 736.916 818.500 C 736.137 818.500 735.348 817.375 735.162 816.000 C 734.977 814.625 733.887 812.489 732.742 811.254 C 731.596 810.019 730.848 808.857 731.079 808.672 C 731.311 808.488 732.625 807.580 734.000 806.655 C 736.357 805.069 736.503 805.073 736.556 806.736 C 736.587 807.706 737.165 809.512 737.841 810.749 M 740.000 873.500 C 740.937 874.629 740.963 875.340 740.105 876.373 C 739.478 877.129 739.246 878.479 739.590 879.373 C 740.055 880.586 739.627 881.000 737.907 881.000 C 736.113 881.000 735.867 880.733 736.800 879.800 C 739.048 877.552 738.133 876.000 734.559 876.000 C 730.813 876.000 728.923 874.297 731.122 872.904 C 733.325 871.508 738.643 871.865 740.000 873.500 M 752.527 804.044 C 752.882 804.618 752.687 805.672 752.095 806.386 C 751.502 807.100 751.251 807.918 751.537 808.203 C 752.511 809.177 750.054 814.000 748.584 814.000 C 746.474 814.000 745.634 812.145 747.000 810.500 C 747.645 809.723 747.864 808.590 747.488 807.981 C 747.112 807.372 747.593 806.002 748.557 804.937 C 750.531 802.756 751.585 802.519 752.527 804.044 M 740.762 851.269 C 741.690 852.001 741.733 852.617 740.926 853.589 C 740.322 854.317 740.099 855.351 740.430 855.887 C 741.295 857.286 739.317 858.235 737.042 857.513 C 734.675 856.762 733.445 853.374 734.902 851.619 C 736.187 850.070 739.029 849.901 740.762 851.269 M 744.370 844.025 C 745.171 844.775 739.138 846.982 736.250 846.994 C 734.648 847.002 734.636 844.764 736.229 843.171 C 737.488 841.912 742.697 842.459 744.370 844.025 "/></g>
<g fill="#BAD698FE" stroke="#BAD698FE">
<path d="M 429.995 454.000 L 429.500 501.500 382.250 501.760 L 335.000 502.020 335.239 544.760 L 335.478 587.500 335.750 545.250 L 336.022 503.000 383.006 503.000 L 429.989 503.000 430.245 592.750 L 430.500 682.500 473.000 682.500 L 515.500 682.500 515.495 629.750 L 515.491 577.000 515.245 629.500 L 515.000 682.000 473.000 682.000 L 431.000 682.000 431.000 592.511 L 431.000 503.022 473.250 502.761 L 515.500 502.500 515.495 454.750 L 515.490 407.000 515.245 454.500 L 515.000 502.000 473.010 502.000 L 431.019 502.000 430.755 454.250 L 430.490 406.500 429.995 454.000 "/></g>
<g fill="#BAD698FE" stroke="#BAD698FE">
<path d="M 470.217 806.994 C 468.504 809.255 468.175 810.458 468.897 811.808 C 469.483 812.903 469.504 814.174 468.950 815.054 C 468.066 816.456 468.603 840.810 469.591 844.166 C 469.861 845.082 469.598 846.131 469.006 846.496 C 468.288 846.940 467.978 854.018 468.074 867.830 C 468.222 889.168 468.826 892.986 472.536 896.000 C 473.927 897.130 473.824 896.736 472.117 894.404 C 469.428 890.729 468.213 883.653 469.918 881.599 C 470.723 880.629 470.765 879.972 470.049 879.530 C 468.628 878.652 468.621 847.352 470.041 846.475 C 470.613 846.121 470.861 845.082 470.591 844.166 C 469.474 840.372 469.065 816.747 470.083 814.845 C 470.848 813.416 470.806 812.471 469.931 811.417 C 468.975 810.265 469.048 809.603 470.283 808.231 C 471.141 807.279 471.990 805.933 472.171 805.240 C 472.352 804.547 471.473 805.336 470.217 806.994 "/></g>
<g fill="#7CAA46FE" stroke="#7CAA46FE">
<path d="M 514.116 499.772 C 514.024 500.783 505.504 500.988 472.500 500.772 C 449.674 500.622 430.999 500.838 431.000 501.250 C 431.000 501.663 449.933 502.000 473.073 502.000 C 512.651 502.000 515.120 501.896 514.689 500.250 C 514.438 499.288 514.180 499.072 514.116 499.772 "/></g>
<g fill="#7CAA46FE" stroke="#7CAA46FE">
<path d="M 431.000 681.250 C 431.000 681.663 449.900 682.000 473.000 682.000 C 496.100 682.000 515.000 681.663 515.000 681.250 C 515.000 680.838 496.100 680.500 473.000 680.500 C 449.900 680.500 431.000 680.838 431.000 681.250 "/></g>
<g fill="#7CAA46FE" stroke="#7CAA46FE">
<path d="M 325.632 792.786 C 325.220 793.454 325.285 794.000 325.777 794.000 C 327.198 794.000 327.026 801.203 325.527 804.500 C 324.688 806.345 324.131 806.848 324.081 805.807 C 324.037 804.875 322.988 803.404 321.750 802.537 C 320.513 801.671 319.651 800.807 319.835 800.619 C 320.020 800.431 319.710 800.561 319.146 800.910 C 318.046 801.589 317.871 808.000 318.952 808.000 C 319.308 808.000 320.111 807.489 320.736 806.864 C 321.583 806.017 322.268 806.125 323.436 807.293 C 325.792 809.649 325.421 809.985 320.250 810.175 L 315.500 810.349 319.886 810.739 C 322.298 810.953 324.740 810.660 325.312 810.088 C 326.001 809.399 326.755 809.382 327.544 810.036 C 328.365 810.718 329.164 810.477 330.117 809.262 C 331.348 807.694 331.322 807.639 329.883 808.762 C 328.562 809.793 328.037 809.749 327.021 808.525 C 325.489 806.679 326.467 803.561 328.243 804.629 C 329.196 805.201 329.236 805.035 328.409 803.942 C 327.776 803.106 327.629 801.450 328.059 800.000 C 328.737 797.716 329.027 797.661 329.375 799.750 C 329.591 801.046 332.505 800.564 332.400 799.250 C 332.345 798.563 332.233 798.505 332.150 799.122 C 331.909 800.923 329.024 798.045 327.620 794.604 C 326.801 792.598 326.129 791.982 325.632 792.786 "/></g>
<g fill="#7CAA46FE" stroke="#7CAA46FE">
<path d="M 679.884 821.417 C 677.980 823.394 677.189 823.640 675.529 822.767 C 674.413 822.181 673.197 821.234 672.826 820.665 C 672.371 819.965 671.692 820.011 670.734 820.806 C 669.954 821.453 669.020 821.687 668.658 821.325 C 668.296 820.963 668.000 821.192 668.000 821.833 C 668.000 823.236 669.647 823.381 670.469 822.050 C 670.803 821.510 672.552 821.983 674.528 823.149 C 676.438 824.276 678.000 824.903 678.000 824.543 C 678.000 824.183 679.052 825.112 680.338 826.606 L 682.676 829.324 684.838 827.162 C 687.234 824.766 687.677 822.865 685.750 823.250 C 685.063 823.388 684.607 822.954 684.738 822.286 C 684.876 821.584 684.348 821.313 683.488 821.643 C 682.670 821.957 682.000 821.753 682.000 821.190 C 682.000 820.627 682.563 819.940 683.250 819.662 C 684.068 819.332 684.105 819.131 683.355 819.079 C 682.725 819.036 681.163 820.088 679.884 821.417 "/></g>
<g fill="#BAD698FE" stroke="#BAD698FE">
<path d="M 755.607 812.500 C 756.278 816.661 756.301 818.850 755.958 845.815 C 755.844 854.789 756.057 860.907 756.433 859.412 C 756.808 857.917 757.095 850.575 757.070 843.097 C 757.044 835.618 757.183 826.946 757.376 823.825 C 757.570 820.704 757.106 815.979 756.346 813.325 C 755.097 808.969 755.025 808.889 755.607 812.500 "/></g>
<g fill="#BAD698FE" stroke="#BAD698FE">
<path d="M 694.000 654.230 C 685.795 664.663 670.678 680.411 661.227 688.373 C 657.227 691.743 655.401 693.600 657.169 692.500 C 665.393 687.384 699.114 651.726 700.269 646.926 C 700.396 646.398 697.575 649.685 694.000 654.230 "/></g>
<g fill="#BAD698FE" stroke="#BAD698FE">
<path d="M 724.608 793.193 C 723.830 799.477 723.960 801.917 725.573 811.264 C 725.951 813.458 725.776 815.565 725.152 816.317 C 724.411 817.209 724.372 820.356 725.023 826.553 C 725.541 831.474 725.972 835.913 725.982 836.417 C 725.992 836.921 726.229 837.105 726.508 836.825 C 726.788 836.546 726.581 832.107 726.049 826.962 C 725.374 820.440 725.405 817.217 726.151 816.318 C 726.814 815.519 726.933 813.593 726.464 811.264 C 726.047 809.194 725.645 802.775 725.571 797.000 L 725.437 786.500 724.608 793.193 "/></g>
<g fill="#7CAA46FE" stroke="#7CAA46FE">
<path d="M 545.048 825.010 C 544.249 825.482 543.237 825.646 542.798 825.375 C 542.359 825.104 542.000 825.475 542.000 826.200 C 542.000 826.926 541.100 828.081 540.000 828.768 C 538.890 829.461 538.000 831.100 538.000 832.449 C 538.000 835.096 539.487 836.639 540.483 835.027 C 540.874 834.395 541.978 834.595 543.460 835.565 C 546.120 837.308 547.684 836.066 546.435 833.202 C 545.847 831.852 545.673 832.017 545.597 834.000 C 545.504 836.384 545.447 836.407 544.352 834.500 C 542.739 831.688 542.270 827.458 543.598 827.699 C 544.202 827.809 545.102 827.056 545.598 826.025 C 546.317 824.531 546.205 824.325 545.048 825.010 "/></g>
<g fill="#BAD698FE" stroke="#BAD698FE">
<path d="M 422.000 857.718 C 425.900 858.412 431.740 864.646 432.202 868.608 L 432.598 872.000 426.049 871.968 C 419.752 871.938 416.000 870.554 416.000 868.262 C 416.000 867.703 415.213 866.649 414.250 865.921 C 412.761 864.794 412.687 864.806 413.750 865.998 C 414.438 866.769 415.000 868.100 415.000 868.956 C 415.000 871.463 420.268 873.127 427.173 872.800 L 433.500 872.500 433.160 869.059 C 432.954 866.965 431.438 863.931 429.290 861.309 C 426.408 857.792 425.184 857.025 422.630 857.136 C 419.914 857.254 419.831 857.331 422.000 857.718 "/></g>
<g fill="#BAD698FE" stroke="#BAD698FE">
<path d="M 283.209 510.750 C 283.094 520.788 283.375 529.000 283.833 529.000 C 284.618 529.000 284.807 527.845 285.231 520.500 C 285.355 518.343 285.288 518.202 284.993 520.000 C 284.767 521.375 284.320 515.750 284.000 507.500 L 283.418 492.500 283.209 510.750 "/></g>
<g fill="#7CAA46FE" stroke="#7CAA46FE">
<path d="M 340.000 855.000 C 340.000 856.100 339.663 856.947 339.250 856.882 C 338.838 856.816 338.163 856.873 337.750 857.007 C 336.486 857.417 335.051 857.744 333.941 857.875 C 333.359 857.944 333.131 858.403 333.435 858.895 C 333.740 859.388 333.204 860.172 332.244 860.639 C 331.285 861.105 331.063 861.377 331.750 861.243 C 333.248 860.952 333.421 862.622 331.984 863.510 C 331.425 863.856 331.226 864.557 331.543 865.069 C 331.859 865.581 331.641 866.000 331.059 866.000 C 330.477 866.000 330.000 866.454 330.000 867.008 C 330.000 867.614 330.781 867.529 331.955 866.796 C 334.499 865.207 336.057 866.754 333.669 868.500 C 331.974 869.739 332.047 869.860 334.671 870.168 C 336.285 870.358 336.982 870.164 336.294 869.718 C 335.630 869.288 335.351 868.249 335.674 867.408 C 336.052 866.421 335.553 865.696 334.263 865.358 C 332.539 864.908 332.419 864.504 333.383 862.418 C 333.997 861.088 335.086 860.219 335.802 860.488 C 336.518 860.757 336.848 860.563 336.536 860.058 C 336.223 859.552 336.397 858.873 336.922 858.548 C 337.447 858.223 338.389 858.755 339.014 859.729 C 340.077 861.384 340.115 861.385 339.607 859.750 C 339.308 858.788 339.499 858.000 340.031 858.000 C 340.564 858.000 341.000 857.073 341.000 855.941 C 341.000 854.639 341.425 854.144 342.155 854.595 C 342.870 855.038 343.038 854.870 342.595 854.155 C 341.468 852.330 340.000 852.808 340.000 855.000 "/></g>
<g fill="#BAD698FE" stroke="#BAD698FE">
<path d="M 497.000 742.032 C 497.000 742.438 505.438 742.780 515.750 742.794 C 526.063 742.807 533.825 742.662 533.000 742.471 C 529.819 741.734 497.000 741.334 497.000 742.032 "/></g>
<g fill="#BAD698FE" stroke="#BAD698FE">
<path d="M 500.261 832.250 C 500.288 833.488 500.030 838.100 499.688 842.500 L 499.065 850.500 500.377 841.500 C 501.098 836.550 501.491 832.137 501.250 831.693 C 501.008 831.249 505.559 830.967 511.363 831.067 C 517.166 831.166 521.634 830.967 521.291 830.624 C 520.947 830.281 516.064 830.000 510.439 830.000 C 500.485 830.000 500.213 830.060 500.261 832.250 "/></g>
<g fill="#BAD698FE" stroke="#BAD698FE">
<path d="M 630.587 880.258 C 636.480 886.992 643.093 891.308 652.496 894.556 C 656.058 895.786 656.656 895.755 657.996 894.273 C 659.367 892.757 659.341 892.729 657.708 893.962 C 656.350 894.987 655.634 895.034 654.758 894.158 C 654.121 893.521 652.827 893.000 651.882 893.000 C 648.096 893.000 639.101 887.380 632.087 880.632 L 624.674 873.500 630.587 880.258 "/></g>
<g fill="#BAD698FE" stroke="#BAD698FE">
<path d="M 524.165 861.354 C 524.317 870.045 524.796 877.374 525.229 877.642 C 525.661 877.909 525.337 878.806 524.508 879.635 C 523.678 880.464 523.000 881.621 523.000 882.206 C 523.000 882.791 523.967 882.040 525.150 880.537 C 526.353 879.007 526.887 877.516 526.363 877.152 C 525.848 876.793 525.299 869.756 525.143 861.514 C 524.988 853.271 524.642 846.308 524.374 846.040 C 524.106 845.772 524.012 852.664 524.165 861.354 "/></g>
<g fill="#BAD698FE" stroke="#BAD698FE">
<path d="M 576.365 831.073 C 577.814 832.212 579.000 833.922 579.000 834.873 C 579.000 835.823 579.433 837.033 579.962 837.562 C 580.563 838.163 580.608 842.460 580.082 849.035 C 579.620 854.816 579.616 861.335 580.074 863.523 L 580.908 867.500 580.601 863.500 C 580.432 861.300 580.660 854.780 581.109 849.012 C 581.616 842.486 581.560 838.160 580.962 837.562 C 580.433 837.033 580.000 835.868 580.000 834.974 C 580.000 833.326 576.055 829.000 574.551 829.000 C 574.099 829.000 574.916 829.933 576.365 831.073 "/></g>
<g fill="#7CAA46FE" stroke="#7CAA46FE">
<path d="M 740.702 871.394 C 740.508 871.975 738.359 872.391 735.925 872.320 L 731.500 872.190 735.422 872.845 C 740.365 873.671 741.569 876.033 736.816 875.579 C 734.992 875.405 734.513 875.458 735.750 875.698 C 738.156 876.163 738.767 878.408 736.817 879.613 C 736.071 880.074 736.425 880.402 737.775 880.502 C 738.953 880.589 740.155 880.038 740.447 879.278 C 740.770 878.435 740.541 878.166 739.859 878.587 C 739.223 878.980 738.915 878.755 739.145 878.064 C 739.368 877.396 739.876 876.884 740.275 876.925 C 740.674 876.966 741.675 877.000 742.500 877.000 C 743.325 877.000 743.888 877.522 743.750 878.160 C 743.580 878.948 743.773 878.926 744.351 878.093 C 744.919 877.273 744.527 876.689 743.170 876.334 C 740.034 875.514 739.867 873.386 742.829 871.991 C 745.371 870.794 745.392 870.724 743.277 870.536 C 742.054 870.427 740.896 870.813 740.702 871.394 "/></g>
<g fill="#BAD698FE" stroke="#BAD698FE">
<path d="M 499.619 864.875 C 500.023 867.169 499.779 868.520 498.857 869.094 C 497.756 869.780 497.736 870.319 498.750 871.956 C 499.505 873.174 500.000 877.491 500.000 882.852 C 500.000 890.285 499.658 892.200 497.902 894.615 L 495.805 897.500 498.402 894.694 C 500.810 892.094 501.000 891.211 501.000 882.644 C 501.000 877.347 500.538 872.938 499.918 872.318 C 499.142 871.542 499.181 870.683 500.056 869.282 C 500.982 867.800 501.004 866.625 500.150 864.414 L 499.024 861.500 499.619 864.875 "/></g>
<g fill="#7CAA46FE" stroke="#7CAA46FE">
<path d="M 298.962 859.232 C 299.771 861.499 299.612 862.137 298.029 862.984 C 296.757 863.665 295.915 863.671 295.502 863.003 C 295.161 862.451 293.814 862.000 292.509 862.000 C 290.499 862.000 290.192 862.421 290.499 864.750 C 290.699 866.263 290.925 867.050 291.001 866.500 C 291.078 865.950 291.527 866.400 292.000 867.500 C 292.574 868.836 292.883 869.002 292.930 867.998 C 292.968 867.172 294.980 865.446 297.399 864.163 C 300.332 862.607 301.690 861.274 301.475 860.165 C 301.298 859.249 301.119 858.924 301.077 859.441 C 301.034 859.959 300.322 859.509 299.494 858.441 C 298.084 856.623 298.050 856.673 298.962 859.232 "/></g>
<g fill="#7CAA46FE" stroke="#7CAA46FE">
<path d="M 631.780 842.117 C 632.790 843.429 632.739 843.972 631.512 844.990 C 630.681 845.680 630.014 846.752 630.030 847.372 C 630.047 847.993 630.538 847.680 631.121 846.677 C 632.127 844.947 632.279 844.942 634.091 846.582 C 636.094 848.395 636.665 851.000 635.059 851.000 C 634.541 851.000 633.825 850.526 633.467 849.947 C 633.110 849.368 632.295 849.091 631.658 849.331 C 630.964 849.592 631.213 850.062 632.279 850.502 C 633.938 851.187 633.944 851.320 632.377 852.467 C 630.493 853.844 631.286 856.000 633.676 856.000 C 634.741 856.000 635.068 855.368 634.710 854.000 C 634.370 852.700 634.680 852.000 635.594 852.000 C 637.454 852.000 637.397 848.575 635.511 847.009 C 634.692 846.329 634.231 845.435 634.487 845.020 C 634.743 844.606 633.959 843.420 632.744 842.384 C 631.274 841.131 630.951 841.042 631.780 842.117 "/></g>
<g fill="#BAD698FE" stroke="#BAD698FE">
<path d="M 559.223 830.557 C 558.000 831.413 557.000 832.725 557.000 833.473 C 557.000 834.221 556.460 835.013 555.799 835.234 C 554.949 835.517 554.681 838.457 554.881 845.317 C 555.120 853.542 554.924 855.025 553.581 855.167 C 552.515 855.279 552.570 855.360 553.750 855.417 C 555.300 855.490 555.500 854.413 555.500 846.000 C 555.500 839.493 555.894 836.248 556.750 835.700 C 557.438 835.260 558.000 834.226 558.000 833.402 C 558.000 832.578 559.463 831.268 561.250 830.491 C 563.038 829.714 563.813 829.061 562.973 829.039 C 562.132 829.018 560.445 829.701 559.223 830.557 "/></g>
<g fill="#7CAA46FE" stroke="#7CAA46FE">
<path d="M 515.691 825.840 C 515.246 826.478 515.148 827.431 515.474 827.957 C 515.825 828.526 512.904 829.053 508.283 829.256 C 500.848 829.582 500.951 829.607 510.579 829.799 C 518.766 829.962 520.944 830.329 522.179 831.750 C 523.557 833.337 523.567 833.290 522.293 831.250 C 521.519 830.013 519.957 829.000 518.821 829.000 C 517.083 829.000 516.956 828.758 518.020 827.476 C 518.716 826.638 518.996 825.663 518.643 825.309 C 518.289 824.956 518.000 825.192 518.000 825.833 C 518.000 826.475 517.550 827.000 517.000 827.000 C 516.450 827.000 516.113 826.478 516.250 825.840 C 516.440 824.959 516.305 824.959 515.691 825.840 "/></g>
<g fill="#BAD698FE" stroke="#BAD698FE">
<path d="M 679.625 827.030 C 682.113 829.922 684.000 833.380 684.000 835.048 C 684.000 835.875 682.684 836.030 679.589 835.566 C 676.872 835.158 674.928 835.308 674.528 835.955 C 674.087 836.668 673.277 836.684 672.005 836.003 C 670.975 835.451 669.314 835.020 668.316 835.044 C 667.317 835.068 668.193 835.692 670.261 836.430 C 672.424 837.202 674.262 837.385 674.586 836.861 C 674.895 836.361 677.307 836.237 679.946 836.587 C 682.960 836.987 684.991 836.824 685.408 836.149 C 686.175 834.907 682.166 828.160 679.386 826.016 C 677.878 824.852 677.926 825.056 679.625 827.030 "/></g>
<g fill="#BAD698FE" stroke="#BAD698FE">
<path d="M 657.823 797.721 C 656.351 797.940 654.551 798.880 653.823 799.809 C 652.653 801.304 652.690 801.352 654.142 800.217 C 656.086 798.698 669.410 797.501 671.234 798.681 C 671.930 799.132 673.850 799.558 675.500 799.630 C 677.150 799.701 679.625 800.051 681.000 800.408 L 683.500 801.056 681.000 799.882 C 677.217 798.104 663.720 796.846 657.823 797.721 "/></g>
<g fill="#BAD698FE" stroke="#BAD698FE">
<path d="M 585.500 502.917 C 583.850 503.291 588.643 503.405 596.152 503.171 C 608.864 502.775 609.838 502.875 610.286 504.623 C 610.689 506.193 610.787 506.132 610.884 504.250 C 610.998 502.037 610.817 502.002 599.750 502.118 C 593.563 502.183 587.150 502.543 585.500 502.917 "/></g>
<g fill="#7CAA46FE" stroke="#7CAA46FE">
<path d="M 701.597 879.111 C 700.000 880.661 698.243 881.650 697.692 881.310 C 697.142 880.970 696.993 881.179 697.362 881.776 C 697.731 882.373 697.622 883.115 697.121 883.425 C 696.620 883.735 695.952 883.316 695.636 882.494 C 694.836 880.408 691.992 880.618 692.170 882.750 C 692.477 886.407 691.923 887.703 689.502 888.999 C 688.127 889.735 687.188 890.522 687.415 890.748 C 688.192 891.526 693.000 887.770 693.000 886.385 C 693.000 885.623 693.829 885.000 694.842 885.000 C 695.855 885.000 698.442 883.041 700.592 880.647 C 702.741 878.253 703.194 877.562 701.597 879.111 "/></g>
<g fill="#BAD698FE" stroke="#BAD698FE">
<path d="M 595.459 855.066 C 595.137 855.588 595.550 856.274 596.377 856.591 C 597.585 857.055 597.664 857.644 596.778 859.588 C 596.171 860.919 595.975 862.308 596.342 862.675 C 596.987 863.320 602.006 859.236 601.994 858.076 C 601.981 856.885 596.029 854.144 595.459 855.066 "/></g>
<g fill="#7CAA46FE" stroke="#7CAA46FE">
<path d="M 313.740 790.317 C 311.294 792.333 311.135 792.803 312.346 794.458 C 313.178 795.596 314.348 796.080 315.344 795.698 C 316.650 795.197 316.782 794.556 316.000 792.500 C 315.233 790.482 315.352 789.802 316.554 789.341 C 318.684 788.524 319.763 789.886 317.971 791.131 C 316.686 792.023 316.689 792.101 318.000 791.743 C 318.825 791.518 319.500 790.702 319.500 789.930 C 319.500 787.674 316.721 787.861 313.740 790.317 "/></g>
<g fill="#BAD698FE" stroke="#BAD698FE">
<path d="M 610.786 866.287 C 611.191 883.652 611.687 885.749 611.780 870.500 C 611.824 863.350 611.554 856.729 611.180 855.787 C 610.806 854.844 610.628 859.569 610.786 866.287 "/></g>
<g fill="#BAD698FE" stroke="#BAD698FE">
<path d="M 309.040 854.452 C 304.969 859.357 315.385 864.964 320.739 860.749 C 322.135 859.650 321.500 857.992 319.691 858.015 C 318.894 858.026 318.949 858.315 319.857 858.890 C 321.401 859.869 320.686 860.440 316.728 861.386 C 314.712 861.868 313.795 861.628 313.364 860.507 C 313.039 859.659 312.036 859.085 311.136 859.232 C 309.986 859.420 309.500 858.757 309.500 857.000 C 309.500 855.444 310.067 854.500 311.000 854.500 C 312.127 854.500 312.189 854.701 311.250 855.309 C 310.563 855.754 310.000 856.574 310.000 857.130 C 310.000 857.687 310.704 857.439 311.564 856.579 C 312.424 855.719 312.847 854.562 312.505 854.008 C 311.635 852.600 310.451 852.751 309.040 854.452 "/></g>
<g fill="#7CAA46FE" stroke="#7CAA46FE">
<path d="M 459.196 868.700 C 458.987 875.306 456.529 880.200 450.347 886.316 C 448.781 887.865 449.638 887.229 452.250 884.901 C 454.863 882.574 457.000 880.124 457.000 879.457 C 457.000 878.791 457.694 877.669 458.542 876.965 C 459.720 875.988 460.002 874.126 459.738 869.093 L 459.392 862.500 459.196 868.700 "/></g>
<g fill="#7CAA46FE" stroke="#7CAA46FE">
<path d="M 304.961 843.547 C 304.023 844.677 303.481 844.778 302.950 843.919 C 302.551 843.273 301.723 843.053 301.112 843.431 C 299.353 844.518 299.817 846.000 301.917 846.000 C 302.971 846.000 304.043 846.563 304.300 847.250 C 304.627 848.126 305.435 847.858 307.004 846.351 C 308.235 845.169 308.937 843.706 308.562 843.101 C 307.623 841.581 306.475 841.723 304.961 843.547 "/></g>
<g fill="#BAD698FE" stroke="#BAD698FE">
<path d="M 452.500 885.246 C 446.989 890.644 440.562 894.313 438.026 893.508 C 436.710 893.091 435.061 893.594 433.360 894.931 C 431.914 896.069 431.186 897.000 431.743 897.000 C 432.300 897.000 433.339 896.296 434.053 895.436 C 434.887 894.432 436.198 894.084 437.714 894.464 C 441.212 895.342 446.154 892.552 451.637 886.604 C 454.607 883.381 454.943 882.853 452.500 885.246 "/></g>
<g fill="#BAD698FE" stroke="#BAD698FE">
<path d="M 725.431 845.175 C 725.018 846.454 724.774 851.550 724.890 856.500 C 725.184 869.068 725.431 871.763 726.129 870.000 C 726.456 869.175 726.363 865.546 725.922 861.936 C 725.482 858.325 725.492 852.700 725.945 849.436 C 726.829 843.050 726.636 841.446 725.431 845.175 "/></g>
<g fill="#BAD698FE" stroke="#BAD698FE">
<path d="M 726.015 896.724 C 725.983 899.281 731.754 901.000 740.369 901.000 C 745.026 901.000 749.652 900.687 750.648 900.305 C 751.644 899.923 747.892 899.732 742.309 899.882 C 732.425 900.148 728.594 899.339 726.765 896.600 C 726.253 895.833 726.026 895.870 726.015 896.724 "/></g>
<g fill="#BAD698FE" stroke="#BAD698FE">
<path d="M 626.547 859.923 C 625.869 861.022 629.801 868.000 631.099 868.000 C 632.365 868.000 632.228 866.789 630.487 862.622 C 628.991 859.043 627.657 858.128 626.547 859.923 "/></g>
<g fill="#7CAA46FE" stroke="#7CAA46FE">
<path d="M 739.808 860.713 C 741.077 860.956 741.934 861.682 741.712 862.327 C 741.311 863.493 737.495 863.642 733.308 862.654 C 731.390 862.202 731.225 862.410 731.994 864.319 C 732.719 866.117 732.884 866.183 732.937 864.693 C 732.998 862.953 733.111 862.953 736.047 864.687 C 738.515 866.144 738.988 866.964 738.534 868.994 C 738.056 871.125 738.135 871.233 739.057 869.712 C 739.654 868.729 739.963 867.388 739.744 866.732 C 739.525 866.076 740.240 864.816 741.332 863.932 C 743.688 862.024 742.789 859.944 739.691 860.136 C 737.561 860.269 737.564 860.285 739.808 860.713 "/></g>
</svg>
